<svg width="700" height="700" viewBox="0 0 700 700" fill="none" xmlns="http://www.w3.org/2000/svg">
<path d="M460.673 202.369V440.599C460.673 501.336 411.253 550.757 350.516 550.757C289.779 550.757 240.358 501.336 240.358 440.599C240.358 417.967 247.228 396.897 258.995 379.382C269.57 387.544 281.267 394.313 293.795 399.451C285.383 411.017 280.416 425.237 280.416 440.599C280.416 479.255 311.861 510.699 350.516 510.699C389.171 510.699 420.616 479.255 420.616 440.599V345.243C401.559 361.016 377.124 370.499 350.516 370.499C327.002 370.499 305.181 363.089 287.275 350.471C258.915 330.532 240.358 297.565 240.358 260.342C240.358 241.755 244.985 224.23 253.167 208.848C265.454 214.586 278.243 219.223 291.411 222.688C284.451 233.574 280.416 246.492 280.416 260.342C280.416 298.997 311.861 330.442 350.516 330.442C389.171 330.442 420.616 298.997 420.616 260.342V219.493C429.929 216.529 439.022 212.974 447.865 208.848C452.201 206.825 456.467 204.662 460.673 202.369Z" fill="black"/>
<path d="M529.301 65.0928C515.712 102.296 490.826 134.101 458.81 156.333C447.314 164.325 434.896 171.074 421.757 176.402C399.736 185.325 375.692 190.242 350.516 190.242C325.34 190.242 301.295 185.325 279.274 176.402C298.501 160.058 323.377 150.184 350.516 150.184C351.247 150.184 351.978 150.184 352.709 150.164C380.659 149.914 407.817 144.707 433.184 134.973C462.916 123.556 490.185 105.921 513.378 82.718C519.026 77.0799 524.334 71.1915 529.301 65.0928Z" fill="black"/>
</svg>
